<svg xmlns="http://www.w3.org/2000/svg" viewBox="0 0 512 512">
  <defs>
    <linearGradient id="grad" x1="0%" y1="0%" x2="100%" y2="100%">
      <stop offset="0%" style="stop-color:#0D47A1;stop-opacity:1" />
      <stop offset="100%" style="stop-color:#2979FF;stop-opacity:1" />
    </linearGradient>
  </defs>
  <circle cx="256" cy="256" r="240" fill="url(#grad)" />
  <path fill="white" d="M448 239.1h-61.7l37.1-37.1c6.2-6.2 6.2-16.4 0-22.6-6.2-6.2-16.4-6.2-22.6 0L356.1 224l-37.1-37.1c-6.2-6.2-16.4-6.2-22.6 0-6.2 6.2-6.2 16.4 0 22.6l37.1 37.1H272v-61.7l37.1 37.1c6.2 6.2 16.4 6.2 22.6 0 6.2-6.2 6.2-16.4 0-22.6l-37.1-37.1L339.3 95c6.2-6.2 6.2-16.4 0-22.6-6.2-6.2-16.4-6.2-22.6 0L272 117.1V64c0-8.8-7.2-16-16-16s-16 7.2-16 16v53.1L195.3 72.4c-6.2-6.2-16.4-6.2-22.6 0-6.2 6.2-6.2 16.4 0 22.6l44.7 44.7-37.1 37.1c-6.2 6.2-6.2 16.4 0 22.6 6.2 6.2 16.4 6.2 22.6 0l37.1-37.1v61.7h-61.7l37.1-37.1c6.2-6.2 6.2-16.4 0-22.6-6.2-6.2-16.4-6.2-22.6 0L155.9 224l-37.1-37.1c-6.2-6.2-16.4-6.2-22.6 0-6.2 6.2-6.2 16.4 0 22.6l37.1 37.1H64c-8.8 0-16 7.2-16 16s7.2 16 16 16h53.1l-44.7 44.7c-6.2 6.2-6.2 16.4 0 22.6 6.2 6.2 16.4 6.2 22.6 0l37.1-37.1v61.7l-37.1-37.1c-6.2-6.2-16.4-6.2-22.6 0-6.2 6.2-6.2 16.4 0 22.6l37.1 37.1-44.7 44.7c-6.2 6.2-6.2 16.4 0 22.6 6.2 6.2 16.4 6.2 22.6 0l44.7-44.7V448c0 8.8 7.2 16 16 16s16-7.2 16-16v-53.1l44.7 44.7c6.2 6.2 16.4 6.2 22.6 0 6.2-6.2 6.2-16.4 0-22.6l-44.7-44.7 37.1-37.1c6.2-6.2 6.2-16.4 0-22.6-6.2-6.2-16.4-6.2-22.6 0l-37.1 37.1H240v-61.7h-61.7l37.1 37.1c6.2 6.2 6.2 16.4 0 22.6-6.2 6.2-16.4 6.2-22.6 0L155.9 288l-37.1 37.1c-6.2 6.2-6.2 16.4 0 22.6 6.2 6.2 16.4 6.2 22.6 0l37.1-37.1H240v61.7l-37.1-37.1c-6.2-6.2-16.4-6.2-22.6 0-6.2 6.2-6.2 16.4 0 22.6l37.1 37.1-44.7 44.7c-6.2 6.2-6.2 16.4 0 22.6 6.2 6.2 16.4 6.2 22.6 0l44.7-44.7V448c0 8.8 7.2 16 16 16s16-7.2 16-16v-53.1l44.7 44.7c6.2 6.2 16.4 6.2 22.6 0 6.2-6.2 6.2-16.4 0-22.6l-44.7-44.7 37.1-37.1c6.2-6.2 6.2-16.4 0-22.6-6.2-6.2-16.4-6.2-22.6 0l-37.1 37.1h61.7v-61.7l-37.1 37.1c-6.2 6.2-16.4 6.2-22.6 0-6.2-6.2-6.2-16.4 0-22.6l37.1-37.1h-61.7v-61.7h61.7l-37.1-37.1c-6.2-6.2-6.2-16.4 0-22.6 6.2-6.2 16.4-6.2 22.6 0l37.1 37.1V272h61.7l-37.1 37.1c-6.2 6.2-6.2 16.4 0 22.6 6.2 6.2 16.4 6.2 22.6 0l37.1-37.1V448c0 8.8 7.2 16 16 16s16-7.2 16-16v-53.1l44.7 44.7c6.2 6.2 16.4 6.2 22.6 0 6.2-6.2 6.2-16.4 0-22.6l-44.7-44.7 37.1-37.1c6.2-6.2 6.2-16.4 0-22.6-6.2-6.2-16.4-6.2-22.6 0l-37.1 37.1h61.7c8.8 0 16-7.2 16-16s-7.2-16-16-16h-53.1l44.7-44.7c6.2-6.2 6.2-16.4 0-22.6-6.2-6.2-16.4-6.2-22.6 0l-37.1 37.1v-61.7h61.7l-37.1 37.1c-6.2 6.2-6.2 16.4 0 22.6 6.2 6.2 16.4 6.2 22.6 0l37.1-37.1h53.1c8.8 0 16-7.2 16-16s-7.2-16-16-16z"/>
</svg>
